<svg width="480" height="480" viewBox="0 0 480 480" fill="none" xmlns="http://www.w3.org/2000/svg">
<path d="M267.79 128.18C269.54 124.984 269.017 125.284 266.965 121.959C265.302 119.26 265.895 115.59 267.302 112.864C270.245 107.569 272.945 104.441 278.51 102.034C279.31 102.35 279.91 102.711 280.687 102.331C282.5 101.445 283.602 99.59 285.34 98.6117C289.94 96.7395 295.325 99.0947 299.715 100.437C301.412 100.957 302.657 101.175 304.347 101.727C305.825 104.615 306.355 105.145 309.757 104.672C310.265 105.194 310.215 105.17 310.322 105.9C309.672 107.644 307.81 107.443 308.04 109.503C308.95 110.212 311.017 109.22 311.917 108.701C314.352 107.299 316.792 108.309 319.197 109.191C320.342 107.478 322.497 103.285 324.73 104.173C325.05 104.63 325.34 104.889 325.085 105.52C324.132 107.865 320.985 109.588 322.24 112.435C322.47 112.953 323.822 115.579 323.86 115.976C324.392 121.498 323.945 127.965 324.037 133.497C322.652 132.785 321.43 131.967 319.882 132.112C318.145 133.298 320.95 138.466 321.5 140.581C320.08 142.61 318.132 145.031 316.135 146.503C320.21 150.9 322.902 153.001 322.69 159.574C322.625 161.604 322.6 162.415 321.405 163.992L321.477 164.247C322.512 164.661 322.327 164.404 322.752 165.188C322.617 166.748 321.575 167.177 321.177 168.283C319.152 173.904 316.122 175.216 311.917 178.888C313.255 183.258 311.44 183.091 313.715 186.609C312.71 188.682 311.82 189.539 312.432 191.506C312.03 192.284 312.317 192.019 311.6 192.392C311.105 191.997 311.045 191.917 310.632 191.429C310.092 191.802 310.072 191.951 309.74 192.493C308.317 194.812 303.53 196.082 301.632 197.904C301.15 198.368 300.93 200.674 300.132 201.834C299.462 202.808 297.575 205.184 297.302 206.123C297.535 206.478 297.73 206.824 297.887 207.218C295.962 211.423 299.58 211.651 294.72 214.921C294.115 217.076 292.61 220.347 292.285 221.724C292.887 222.244 292.38 221.862 293.04 221.974C297.29 222.697 305.37 226.574 305.675 231.693C305.94 236.165 308.192 242.399 307.985 246.734C307.847 249.659 305.267 251.617 306.342 255.602C313.887 258.747 312.162 259.077 313.952 266.74C311.955 271.82 313.057 274.047 312.392 278.617C311.81 282.615 309.28 287.818 308.925 292.202C308.505 294.215 305.157 297.202 304.062 300.23L304.17 300.647C305.812 306.837 310.745 311.345 306.86 319.175C305.052 322.815 298.702 326.165 299.275 329C301.047 330.507 303.037 330.427 303.387 333.797C303.525 335.117 303.187 336.602 303.165 337.75C303.025 344.462 297.932 346.083 295.192 351.575C293.037 352.592 288.545 354.987 286.237 354.37C285.8 354.255 284.372 353.055 283.947 352.702C283.467 353.175 282.442 354.177 282.095 354.705C280.907 356.505 280.202 358.758 278.217 359.858L277.755 359.777C277.567 359.242 277.472 358.925 277.337 358.372C276.755 358.758 276.332 359.442 275.945 360.02C273.252 364.033 272.815 364.835 268.345 366.592L268.17 366.89C267.057 368.795 267.105 370.335 265.637 370.82L265.412 370.737C264.53 370.417 264.43 370.383 263.515 370.29L263.18 369.932C263.3 368.115 264.67 366.345 262.557 365.12C262.045 365.568 262.097 366.108 262.047 366.915C262.025 367.285 262.005 367.658 261.99 368.03C259.877 368.015 259.362 368.055 257.31 368.405C255.525 369.943 255.345 371.64 253.3 372.305C249.629 373.495 245.933 374.13 242.119 374.635C241.226 374.21 240.364 373.65 239.415 373.755C238.332 374.272 238.418 374.495 237.793 375.483L237.633 375.74C236.621 375.385 235.706 373.53 235.171 372.565C234.063 373.647 231.884 376.14 230.516 376.18C229.076 375.003 225.837 375.38 223.867 374.775C221.629 374.087 220.419 372.56 218.23 372.217C214.278 371.725 212.648 372.572 208.516 371.675C202.618 370.397 203.484 363.8 199.949 364.177C199.3 364.247 198.53 365 197.13 364.767C196.228 364.167 196.476 364.56 196.204 363.663C196.767 361.408 198.253 360.878 197.534 359.068C194.678 356.94 192 360.177 189.597 360.375C184.641 360.783 177.749 359.672 173.501 356.895C170.399 354.74 166.695 350.27 166.889 346.33C167.974 344.092 167.426 339.57 167.24 336.965C167.731 334.37 168.598 333.497 170.103 331.285C165.523 329.552 164.942 328.982 161.526 325.475C159.94 323.842 159.578 324.055 157.6 324.092C155.478 321.672 155.146 315.607 154.565 312.907L154.495 312.595C155.358 310.865 156.49 309.105 157.197 307.28C157.877 305.525 158.257 304.257 159.068 302.52C153.592 298.797 151.367 293.842 148.827 287.855C148.129 286.207 148.296 283.927 147.077 282.455C146.525 281.79 146.316 281.352 146.473 280.537L146.836 280.375C147.447 280.705 147.888 281.042 148.562 281.01C148.933 280.065 148.046 278.565 147.606 277.735C149.55 275.34 151.019 273.43 153.404 271.467C153.083 271.012 152.848 270.647 152.633 270.145C150.596 265.38 150.472 262.74 150.177 257.92C149.802 251.777 148.587 248.945 152.182 243.171C153.11 241.546 154.227 240.014 155.065 238.34C156.02 236.434 156.408 232.173 158.259 230.928C161.045 229.055 165.023 227.66 168.221 226.635C169.174 226.33 170.132 227.461 171.609 226.901C171.804 226.385 171.743 226.202 171.651 225.663C173.589 221.043 175.389 215.179 179.992 212.663C185.603 209.598 192.842 207.802 198.084 212.747C200.037 214.589 200.398 217.202 202.385 217.718C203.199 217.331 203.865 216.508 203.855 215.595L203.406 215.25L203.673 214.302C204.315 213.151 204.884 212.411 204.956 211.131C203.657 208.28 193.356 209.613 192.71 195.891C191.064 195.83 188.364 196.07 189.187 193.564C190.415 192.459 192.405 192.475 194.067 192.313C195.252 191.002 196.617 188.357 197.53 186.738L195.09 186.233C186.605 184.408 186.901 176.55 185.388 169.908C184.332 165.266 183.248 166.737 184.587 161.241C186.447 159.47 187.086 158.775 188.33 156.544C187.451 154.901 186.619 153.936 185.3 152.676C180.097 151.733 177.432 150.517 175.145 146.2C174.893 145.724 172.428 146.279 171.366 145.11C171.09 144.385 171.124 143.579 171.461 142.881C172.518 140.64 175.329 143.149 175.791 140.978C175.986 139.409 175.364 137.94 174.536 136.703C172.593 133.799 180.773 130.848 182.9 130C182.858 127.57 183.02 125.127 182.995 122.684C183.402 121.212 183.88 121.09 185.117 120.234C186.669 118.441 185.644 116.484 186.233 114.464C188.457 106.839 198.709 108.206 204.267 107.935C205.532 107.195 206.263 106.544 206.944 105.503C207.713 104.328 212.218 104.746 213.35 105.254C215.855 106.377 225.164 108.564 226.497 110.482C226.864 112.853 228.27 116.99 226.495 118.363C226.42 119.084 226.356 118.726 226.879 119.427C228.377 120.245 230.356 120.203 231.982 119.853C234.045 119.408 235.508 122.304 237.366 122.331C238.592 121.286 238.031 119.199 240.874 119.218C242.074 119.963 242.324 121.097 242.048 122.524C241.719 124.222 240.079 123.683 239.573 124.839C240.14 125.82 241.879 126.417 242.947 127.038C243.338 127.965 244.295 129.729 243.877 130.698C243.256 132.152 241.351 131.748 240.91 133.343C240.289 135.583 240.158 137.933 239.821 140.237C239.577 141.896 238.533 144.653 239.197 146.197C239.706 146.448 239.786 146.47 240.336 146.619L240.575 146.996L240.506 147.299C239.719 150.912 242.474 150.008 243.589 151.601C246.921 156.36 247.456 163.426 246.156 168.985C244.577 175.737 249.343 172.337 250.977 175.669C250.987 176.853 250.89 176.969 250.445 178.104C249.832 178.823 249.458 178.983 249.405 179.733C250.005 180.138 250.977 180.175 251.735 180.274C254.837 182.491 252.305 182.722 253.45 184.489C254.24 184.99 255.285 184.943 256.25 185.01C257.525 183.21 258.33 182.219 259.807 180.58C259.155 179.014 258.587 174.867 257.552 174.101C254.42 174.507 253.462 174.589 250.41 173.795C251.112 172.773 253.63 170.545 253.717 170.355C255.2 167.157 254.697 164.659 256.665 161.401C257.765 160.784 257.81 160.987 258.332 160.058C258.337 158.55 256.705 156.315 255.9 155.017C252.43 149.437 254.35 144.384 258.772 140.152C260.88 139.805 260.025 140.246 262.05 138.625C262.68 138.121 265.95 140.858 266.322 136.193C266.342 135.962 268.097 135.391 268.235 135.089C268.43 133.947 267.857 129.405 267.79 128.18ZM230.062 288.58C235.04 283.08 241.793 275.877 249.448 274.907C253.757 273.892 255.495 274.92 259.915 275.24C256.475 273.177 255.157 272.7 253.55 269.022C248.388 272.257 238.686 273.66 233.726 269.282C231.281 269.01 228.707 269.025 226.244 269.102C226.922 270.915 228.704 272.747 229.309 274.492C230.775 278.722 229.931 284.13 230.062 288.58ZM221.032 326.885C220.906 329.15 221.04 329.4 222.4 331.242C223.317 332.485 228.122 335.84 229.308 336.04C228.68 333.662 225.513 331.865 223.952 329.917C223.344 329.158 221.804 327.202 221.032 326.885ZM186.999 288.16C187.357 291.772 191.671 287.837 191.11 297.615C192.592 298.307 194.03 299.035 195.598 299.495C197.823 303.085 198.137 301.932 201.814 300.595C202.463 300.347 203.413 300.09 203.838 299.635C203.356 298.967 202.243 299.102 201.381 298.585C197.996 296.552 195.925 292.625 194.445 289.227C191.54 288.987 189.833 288.705 186.999 288.16ZM228.712 289.94C226.136 293.502 220.122 298.202 215.872 299.792C214.951 300.135 213.286 299.852 213.23 300.982C215.035 303.47 217.215 303.9 218.992 307.062C219.472 308.885 220.006 311.592 221.216 312.93L221.751 313.037C222.358 311.822 222.035 307.605 222.304 305.902C222.807 302.722 228.769 290.595 228.712 289.94Z" fill="#FEFEFE"></path>
<path d="M329.215 114.173L329.76 114.214C331.823 115.621 334.803 122.113 331.5 122.984C330.683 122.469 330.35 121.351 329.645 120.374C328.913 120.737 329.05 120.861 328.575 121.769C327.028 123.369 326.96 123.929 326.295 126.021C324.463 122.15 324.928 120.725 326.155 116.685C327.263 115.952 328.223 115.053 329.215 114.173Z" fill="#FEFEFE"></path>
<path d="M195.386 365.905C197.117 366.61 197.545 367.273 198.873 368.583C197.69 369.178 196.65 369.52 195.41 369.958C194.604 370.105 193.533 370.403 192.713 370.603C193.522 369.073 194.322 367.203 195.386 365.905Z" fill="#FCF7FA" fill-opacity="0.988235"></path>
<path d="M167.24 336.965C167.426 339.57 167.974 344.092 166.889 346.33C165.043 346.647 162.337 344.992 163.179 343.352C164.716 343.082 165.882 344.375 167.023 345.297C166.895 342.347 166.682 339.895 167.24 336.965Z" fill="#FCF7FA" fill-opacity="0.988235"></path>
<path d="M182.995 122.684C182.956 121.54 182.454 120.827 182.474 120.164C183.182 119.135 183.876 118.257 185.12 117.952L185.347 118.13C185.201 118.976 185.158 119.377 185.117 120.234C183.88 121.09 183.402 121.212 182.995 122.684Z" fill="#FBF8F9" fill-opacity="0.0117647"></path>
<path d="M325.743 110.892C326.553 111.208 326.69 111.213 327.238 111.914C327.435 112.82 326.955 113.745 326.623 114.652L326.08 114.658C324.888 113.629 325.08 112.193 325.743 110.892Z" fill="#FEFEFE" fill-opacity="0.988235"></path>
<path d="M178.319 126.934C178.518 126.96 178.854 127.081 179.06 127.144L179.154 127.589C178.685 128.409 177.03 129.438 176.172 130.084L175.747 130.116L175.673 129.771C176.357 128.615 177.43 128.098 178.319 126.934Z" fill="#FCF7FA" fill-opacity="0.745098"></path>
<path d="M250.445 178.104C250.888 179.338 251.65 179.609 251.735 180.274C250.978 180.175 250.005 180.138 249.405 179.733C249.459 178.983 249.833 178.824 250.445 178.104Z" fill="#FEFEFE" fill-opacity="0.0117647"></path>
<path d="M203.406 215.25C202.236 214.557 201.514 213.714 202.172 212.312C202.825 212.734 202.931 213.575 203.673 214.302L203.406 215.25Z" fill="#FEFEFE" fill-opacity="0.909804"></path>
<path d="M320.183 146.88C320.815 147.877 320.865 148.357 320.985 149.512C320.743 149.339 320.373 148.99 320.155 148.798C319.84 147.933 319.955 147.762 320.183 146.88Z" fill="#FCF7FA" fill-opacity="0.372549"></path>
<path d="M326.482 128.962L326.697 129.216C326.6 130.083 326.437 129.975 325.677 130.781L325.407 130.391C325.537 129.601 325.737 129.666 326.482 128.962Z" fill="#FCF7FA" fill-opacity="0.462745"></path>
</svg>